<svg width="17" height="17" viewBox="0 0 17 17" fill="none" xmlns="http://www.w3.org/2000/svg">
<g clip-path="url(#clip0_8360_23514)">
<path d="M0.140625 8.60989C0.140625 8.47448 0.190104 8.35729 0.289062 8.25833C0.388021 8.15937 0.505208 8.10989 0.640625 8.10989H11.6406C11.776 8.10989 11.8932 8.15937 11.9922 8.25833C12.0911 8.35729 12.1406 8.47448 12.1406 8.60989C12.1406 8.74531 12.0911 8.8625 11.9922 8.96146C11.8932 9.06041 11.776 9.10989 11.6406 9.10989H0.640625C0.505208 9.10989 0.388021 9.06041 0.289062 8.96146C0.190104 8.8625 0.140625 8.74531 0.140625 8.60989ZM6.78125 3.75052C6.88542 3.65677 7.00521 3.60989 7.14062 3.60989C7.27604 3.60989 7.39583 3.65677 7.5 3.75052L12 8.25052C12.0938 8.35469 12.1406 8.47448 12.1406 8.60989C12.1406 8.74531 12.0938 8.8651 12 8.96927L7.5 13.4693C7.39583 13.563 7.27604 13.6099 7.14062 13.6099C7.00521 13.6099 6.88542 13.563 6.78125 13.4693C6.6875 13.3651 6.64062 13.2453 6.64062 13.1099C6.64062 12.9745 6.6875 12.8547 6.78125 12.7505L10.9375 8.60989L6.78125 4.46927C6.6875 4.3651 6.64062 4.24531 6.64062 4.10989C6.64062 3.97448 6.6875 3.85469 6.78125 3.75052Z" fill="white"/>
</g>
<defs>
<clipPath id="clip0_8360_23514">
<rect width="16" height="16" fill="white" transform="matrix(1 0 0 -1 0.140625 16.6099)"/>
</clipPath>
</defs>
</svg>
