<svg width="64" height="65" viewBox="0 0 64 65" fill="none" xmlns="http://www.w3.org/2000/svg">
<g clip-path="url(#clip0_8360_23401)">
<path d="M54.625 16.925H52.875V10.175C52.875 7.59172 51.9583 5.38338 50.125 3.55005C48.2917 1.71672 46.0833 0.800049 43.5 0.800049H20.5C17.9167 0.800049 15.7083 1.71672 13.875 3.55005C12.0417 5.38338 11.125 7.59172 11.125 10.175V16.925H9.375C6.79167 16.925 4.58333 17.8417 2.75 19.675C0.916667 21.5084 0 23.7167 0 26.3V41.3C0 43.8834 0.916667 46.0917 2.75 47.925C4.58333 49.7584 6.79167 50.675 9.375 50.675H11.125V59.175C11.125 60.7167 11.6771 62.0396 12.7812 63.1438C13.8854 64.248 15.2083 64.8 16.75 64.8H47.25C48.7917 64.8 50.1146 64.248 51.2188 63.1438C52.3229 62.0396 52.875 60.7167 52.875 59.175V50.675H54.625C57.2083 50.675 59.4167 49.7584 61.25 47.925C63.0833 46.0917 64 43.8834 64 41.3V26.3C64 23.7167 63.0833 21.5084 61.25 19.675C59.4167 17.8417 57.2083 16.925 54.625 16.925ZM14.875 10.175C14.875 8.63338 15.4271 7.31047 16.5312 6.2063C17.6354 5.10213 18.9583 4.55005 20.5 4.55005H43.5C45.0417 4.55005 46.3646 5.10213 47.4688 6.2063C48.5729 7.31047 49.125 8.63338 49.125 10.175V16.925H14.875V10.175ZM49.125 59.175C49.125 59.675 48.9375 60.1125 48.5625 60.4875C48.1875 60.8625 47.75 61.05 47.25 61.05H16.75C16.25 61.05 15.8125 60.8625 15.4375 60.4875C15.0625 60.1125 14.875 59.675 14.875 59.175V40.675H49.125V59.175ZM60.25 41.3C60.25 42.8417 59.6979 44.1646 58.5938 45.2688C57.4896 46.373 56.1667 46.925 54.625 46.925H52.875V40.675H54C54.5 40.675 54.9375 40.4875 55.3125 40.1125C55.6875 39.7375 55.875 39.3 55.875 38.8C55.875 38.3 55.6875 37.8625 55.3125 37.4875C54.9375 37.1125 54.5 36.925 54 36.925H10C9.5 36.925 9.0625 37.1125 8.6875 37.4875C8.3125 37.8625 8.125 38.3 8.125 38.8C8.125 39.3 8.3125 39.7375 8.6875 40.1125C9.0625 40.4875 9.5 40.675 10 40.675H11.125V46.925H9.375C7.83333 46.925 6.51042 46.373 5.40625 45.2688C4.30208 44.1646 3.75 42.8417 3.75 41.3V26.3C3.75 24.7584 4.30208 23.4355 5.40625 22.3313C6.51042 21.2271 7.83333 20.675 9.375 20.675H54.625C56.1667 20.675 57.4896 21.2271 58.5938 22.3313C59.6979 23.4355 60.25 24.7584 60.25 26.3V41.3ZM37 44.925H27C26.5 44.925 26.0625 45.1125 25.6875 45.4875C25.3125 45.8625 25.125 46.3 25.125 46.8C25.125 47.3 25.3125 47.7375 25.6875 48.1125C26.0625 48.4875 26.5 48.675 27 48.675H37C37.5 48.675 37.9375 48.4875 38.3125 48.1125C38.6875 47.7375 38.875 47.3 38.875 46.8C38.875 46.3 38.6875 45.8625 38.3125 45.4875C37.9375 45.1125 37.5 44.925 37 44.925ZM37 52.925H27C26.5 52.925 26.0625 53.1125 25.6875 53.4875C25.3125 53.8625 25.125 54.3 25.125 54.8C25.125 55.3 25.3125 55.7375 25.6875 56.1125C26.0625 56.4875 26.5 56.675 27 56.675H37C37.5 56.675 37.9375 56.4875 38.3125 56.1125C38.6875 55.7375 38.875 55.3 38.875 54.8C38.875 54.3 38.6875 53.8625 38.3125 53.4875C37.9375 53.1125 37.5 52.925 37 52.925ZM16 24.925H10C9.5 24.925 9.0625 25.1125 8.6875 25.4875C8.3125 25.8625 8.125 26.3 8.125 26.8C8.125 27.3 8.3125 27.7375 8.6875 28.1125C9.0625 28.4875 9.5 28.675 10 28.675H16C16.5 28.675 16.9375 28.4875 17.3125 28.1125C17.6875 27.7375 17.875 27.3 17.875 26.8C17.875 26.3 17.6875 25.8625 17.3125 25.4875C16.9375 25.1125 16.5 24.925 16 24.925Z" fill="#2EBB77"/>
</g>
<defs>
<clipPath id="clip0_8360_23401">
<rect width="64" height="64" fill="white" transform="matrix(1 0 0 -1 0 64.8)"/>
</clipPath>
</defs>
</svg>
