<svg width="64" height="65" viewBox="0 0 64 65" fill="none" xmlns="http://www.w3.org/2000/svg">
<path d="M58.375 2.80005H5.625C4.08333 2.80005 2.76042 3.35213 1.65625 4.4563C0.552083 5.56047 0 6.88338 0 8.42505V45.925C0 47.4667 0.552083 48.7896 1.65625 49.8938C2.76042 50.998 4.08333 51.55 5.625 51.55H21.875L19.375 59.05H13.25C12.75 59.05 12.3125 59.2375 11.9375 59.6125C11.5625 59.9875 11.375 60.425 11.375 60.925C11.375 61.425 11.5625 61.8625 11.9375 62.2375C12.3125 62.6125 12.75 62.8 13.25 62.8H50.75C51.25 62.8 51.6875 62.6125 52.0625 62.2375C52.4375 61.8625 52.625 61.425 52.625 60.925C52.625 60.425 52.4375 59.9875 52.0625 59.6125C51.6875 59.2375 51.25 59.05 50.75 59.05H44.625L42.125 51.55H58.375C59.9167 51.55 61.2396 50.998 62.3438 49.8938C63.4479 48.7896 64 47.4667 64 45.925V8.42505C64 6.88338 63.4479 5.56047 62.3438 4.4563C61.2396 3.35213 59.9167 2.80005 58.375 2.80005ZM23.375 59.05L25.875 51.55H38.125L40.625 59.05H23.375ZM60.25 45.925C60.25 46.425 60.0625 46.8625 59.6875 47.2375C59.3125 47.6125 58.875 47.8 58.375 47.8C57.6667 47.8 54.6458 47.8 49.3125 47.8C44.0208 47.8 38.25 47.8 32 47.8C25.75 47.8 19.9792 47.8 14.6875 47.8C9.35417 47.8 6.33333 47.8 5.625 47.8C5.125 47.8 4.6875 47.6125 4.3125 47.2375C3.9375 46.8625 3.75 46.425 3.75 45.925V44.05H60.25V45.925ZM60.25 40.3H3.75V8.42505C3.75 7.92505 3.9375 7.48755 4.3125 7.11255C4.6875 6.73755 5.125 6.55005 5.625 6.55005H58.375C58.875 6.55005 59.3125 6.73755 59.6875 7.11255C60.0625 7.48755 60.25 7.92505 60.25 8.42505V40.3ZM37.625 12.175C37.625 12.675 37.4375 13.1125 37.0625 13.4875C36.6875 13.8625 36.25 14.05 35.75 14.05C35.25 14.05 34.8125 13.8625 34.4375 13.4875C34.0625 13.1125 33.875 12.675 33.875 12.175C33.875 11.675 34.0625 11.2375 34.4375 10.8625C34.8125 10.4875 35.25 10.3 35.75 10.3C36.25 10.3 36.6875 10.4875 37.0625 10.8625C37.4375 11.2375 37.625 11.675 37.625 12.175ZM30.125 12.175C30.125 12.675 29.9375 13.1125 29.5625 13.4875C29.1875 13.8625 28.75 14.05 28.25 14.05C27.75 14.05 27.3125 13.8625 26.9375 13.4875C26.5625 13.1125 26.375 12.675 26.375 12.175C26.375 11.675 26.5625 11.2375 26.9375 10.8625C27.3125 10.4875 27.75 10.3 28.25 10.3C28.75 10.3 29.1875 10.4875 29.5625 10.8625C29.9375 11.2375 30.125 11.675 30.125 12.175ZM45.125 12.175C45.125 12.675 44.9375 13.1125 44.5625 13.4875C44.1875 13.8625 43.75 14.05 43.25 14.05C42.75 14.05 42.3125 13.8625 41.9375 13.4875C41.5625 13.1125 41.375 12.675 41.375 12.175C41.375 11.675 41.5625 11.2375 41.9375 10.8625C42.3125 10.4875 42.75 10.3 43.25 10.3C43.75 10.3 44.1875 10.4875 44.5625 10.8625C44.9375 11.2375 45.125 11.675 45.125 12.175ZM20.75 10.3H9.5C9 10.3 8.5625 10.4875 8.1875 10.8625C7.8125 11.2375 7.625 11.675 7.625 12.175V34.675C7.625 35.175 7.8125 35.6125 8.1875 35.9875C8.5625 36.3625 9 36.55 9.5 36.55H20.75C21.25 36.55 21.6875 36.3625 22.0625 35.9875C22.4375 35.6125 22.625 35.175 22.625 34.675V12.175C22.625 11.675 22.4375 11.2375 22.0625 10.8625C21.6875 10.4875 21.25 10.3 20.75 10.3ZM18.875 32.8H11.375V29.05H18.875V32.8ZM18.875 25.3H11.375V21.55H18.875V25.3ZM18.875 17.8H11.375V14.05H18.875V17.8ZM48.3125 29.6125C47.9375 29.2375 47.5 29.05 47 29.05C46.5 29.05 46.0625 29.2375 45.6875 29.6125L43.5625 31.7375L37.3125 22.3625C37.1458 22.1125 36.9271 21.9146 36.6562 21.7688C36.3854 21.623 36.0833 21.55 35.75 21.55C35.4167 21.55 35.1146 21.623 34.8438 21.7688C34.5729 21.9146 34.3542 22.1125 34.1875 22.3625L26.6875 33.6125C26.3958 34.0709 26.3021 34.55 26.4062 35.05C26.5104 35.55 26.7708 35.9459 27.1875 36.2375C27.6458 36.5292 28.125 36.623 28.625 36.5188C29.125 36.4146 29.5208 36.1542 29.8125 35.7375L35.75 26.8L41.6875 35.7375C41.8542 35.9459 42.0521 36.123 42.2812 36.2688C42.5104 36.4146 42.7708 36.5084 43.0625 36.55C43.3542 36.5917 43.625 36.5605 43.875 36.4563C44.125 36.3521 44.3542 36.1959 44.5625 35.9875L47 33.55L49.4375 35.9875C49.8125 36.3625 50.25 36.55 50.75 36.55C51.25 36.55 51.6875 36.3625 52.0625 35.9875C52.4375 35.6125 52.625 35.175 52.625 34.675C52.625 34.175 52.4375 33.7375 52.0625 33.3625L48.3125 29.6125ZM50.75 14.05C49.2083 14.05 47.8854 14.6021 46.7812 15.7063C45.6771 16.8105 45.125 18.1334 45.125 19.675C45.125 21.2167 45.6771 22.5396 46.7812 23.6438C47.8854 24.748 49.2083 25.3 50.75 25.3C52.2917 25.3 53.6146 24.748 54.7188 23.6438C55.8229 22.5396 56.375 21.2167 56.375 19.675C56.375 18.1334 55.8229 16.8105 54.7188 15.7063C53.6146 14.6021 52.2917 14.05 50.75 14.05ZM50.75 21.55C50.25 21.55 49.8125 21.3625 49.4375 20.9875C49.0625 20.6125 48.875 20.175 48.875 19.675C48.875 19.175 49.0625 18.7375 49.4375 18.3625C49.8125 17.9875 50.25 17.8 50.75 17.8C51.25 17.8 51.6875 17.9875 52.0625 18.3625C52.4375 18.7375 52.625 19.175 52.625 19.675C52.625 20.175 52.4375 20.6125 52.0625 20.9875C51.6875 21.3625 51.25 21.55 50.75 21.55Z" fill="#2EBB77"/>
</svg>
