<svg width="64" height="65" viewBox="0 0 64 65" fill="none" xmlns="http://www.w3.org/2000/svg">
<g clip-path="url(#clip0_8360_23387)">
<path d="M18.875 17.675C18.875 18.175 18.6875 18.6125 18.3125 18.9875C17.9375 19.3625 17.5 19.55 17 19.55C16.5 19.55 16.0625 19.3625 15.6875 18.9875C15.3125 18.6125 15.125 18.175 15.125 17.675C15.125 17.175 15.3125 16.7375 15.6875 16.3625C16.0625 15.9875 16.5 15.8 17 15.8C17.5 15.8 17.9375 15.9875 18.3125 16.3625C18.6875 16.7375 18.875 17.175 18.875 17.675ZM18.875 25.175C18.875 25.675 18.6875 26.1125 18.3125 26.4875C17.9375 26.8625 17.5 27.05 17 27.05C16.5 27.05 16.0625 26.8625 15.6875 26.4875C15.3125 26.1125 15.125 25.675 15.125 25.175C15.125 24.675 15.3125 24.2375 15.6875 23.8625C16.0625 23.4875 16.5 23.3 17 23.3C17.5 23.3 17.9375 23.4875 18.3125 23.8625C18.6875 24.2375 18.875 24.675 18.875 25.175ZM18.875 10.175C18.875 10.675 18.6875 11.1125 18.3125 11.4875C17.9375 11.8625 17.5 12.05 17 12.05C16.5 12.05 16.0625 11.8625 15.6875 11.4875C15.3125 11.1125 15.125 10.675 15.125 10.175C15.125 9.67505 15.3125 9.23755 15.6875 8.86255C16.0625 8.48755 16.5 8.30005 17 8.30005C17.5 8.30005 17.9375 8.48755 18.3125 8.86255C18.6875 9.23755 18.875 9.67505 18.875 10.175ZM62.125 0.800049H43.25C41.7083 0.800049 40.3854 1.35213 39.2812 2.4563C38.1771 3.56047 37.625 4.88338 37.625 6.42505V12.05H33.875V2.67505C33.875 2.17505 33.6875 1.73755 33.3125 1.36255C32.9375 0.987549 32.5 0.800049 32 0.800049H9.5C9 0.800049 8.5625 0.987549 8.1875 1.36255C7.8125 1.73755 7.625 2.17505 7.625 2.67505V12.05H1.875C1.375 12.05 0.9375 12.2375 0.5625 12.6125C0.1875 12.9875 0 13.425 0 13.925V21.425C0 21.925 0.1875 22.3625 0.5625 22.7375C0.9375 23.1125 1.375 23.3 1.875 23.3H7.625V36.425C7.625 37.9667 8.17708 39.2896 9.28125 40.3938C10.3854 41.498 11.7083 42.05 13.25 42.05H15.125V43.925C15.125 45.1334 15.4792 46.2271 16.1875 47.2063C16.8958 48.1855 17.7917 48.8625 18.875 49.2375V53.55H13.25C11.7083 53.55 10.3854 54.1021 9.28125 55.2063C8.17708 56.3105 7.625 57.6334 7.625 59.175V61.05H1.875C1.375 61.05 0.9375 61.2375 0.5625 61.6125C0.1875 61.9875 0 62.425 0 62.925C0 63.425 0.1875 63.8625 0.5625 64.2375C0.9375 64.6125 1.375 64.8 1.875 64.8H62.125C62.625 64.8 63.0625 64.6125 63.4375 64.2375C63.8125 63.8625 64 63.425 64 62.925C64 62.425 63.8125 61.9875 63.4375 61.6125C63.0625 61.2375 62.625 61.05 62.125 61.05H33.875V59.175C33.875 57.6334 33.3229 56.3105 32.2188 55.2063C31.1146 54.1021 29.7917 53.55 28.25 53.55H22.625V49.2375C23.7083 48.8625 24.6042 48.1855 25.3125 47.2063C26.0208 46.2271 26.375 45.1334 26.375 43.925V42.05H28.25C29.7917 42.05 31.1146 41.498 32.2188 40.3938C33.3229 39.2896 33.875 37.9667 33.875 36.425V23.3H43.25C44.7917 23.3 46.1146 22.748 47.2188 21.6438C48.3229 20.5396 48.875 19.2167 48.875 17.675V12.05H62.125C62.625 12.05 63.0625 11.8625 63.4375 11.4875C63.8125 11.1125 64 10.675 64 10.175V2.67505C64 2.17505 63.8125 1.73755 63.4375 1.36255C63.0625 0.987549 62.625 0.800049 62.125 0.800049ZM30.125 59.175V61.05H11.375V59.175C11.375 58.675 11.5625 58.2375 11.9375 57.8625C12.3125 57.4875 12.75 57.3 13.25 57.3H28.25C28.75 57.3 29.1875 57.4875 29.5625 57.8625C29.9375 58.2375 30.125 58.675 30.125 59.175ZM11.375 4.55005H30.125V8.30005H24.5C24 8.30005 23.5625 8.48755 23.1875 8.86255C22.8125 9.23755 22.625 9.67505 22.625 10.175C22.625 10.675 22.8125 11.1125 23.1875 11.4875C23.5625 11.8625 24 12.05 24.5 12.05H30.125V15.8H24.5C24 15.8 23.5625 15.9875 23.1875 16.3625C22.8125 16.7375 22.625 17.175 22.625 17.675C22.625 18.175 22.8125 18.6125 23.1875 18.9875C23.5625 19.3625 24 19.55 24.5 19.55H30.125V23.3H24.5C24 23.3 23.5625 23.4875 23.1875 23.8625C22.8125 24.2375 22.625 24.675 22.625 25.175C22.625 25.675 22.8125 26.1125 23.1875 26.4875C23.5625 26.8625 24 27.05 24.5 27.05H30.125V30.8H11.375V4.55005ZM3.75 19.55V15.8H7.625V19.55H3.75ZM22.625 43.925C22.625 44.425 22.4375 44.8625 22.0625 45.2375C21.6875 45.6125 21.25 45.8 20.75 45.8C20.25 45.8 19.8125 45.6125 19.4375 45.2375C19.0625 44.8625 18.875 44.425 18.875 43.925V42.05H22.625V43.925ZM28.25 38.3H13.25C12.75 38.3 12.3125 38.1125 11.9375 37.7375C11.5625 37.3625 11.375 36.925 11.375 36.425V34.55H30.125V36.425C30.125 36.925 29.9375 37.3625 29.5625 37.7375C29.1875 38.1125 28.75 38.3 28.25 38.3ZM47 8.30005C46.5 8.30005 46.0625 8.48755 45.6875 8.86255C45.3125 9.23755 45.125 9.67505 45.125 10.175V17.675C45.125 18.175 44.9375 18.6125 44.5625 18.9875C44.1875 19.3625 43.75 19.55 43.25 19.55H33.875V15.8H39.5C40 15.8 40.4375 15.6125 40.8125 15.2375C41.1875 14.8625 41.375 14.425 41.375 13.925V6.42505C41.375 5.92505 41.5625 5.48755 41.9375 5.11255C42.3125 4.73755 42.75 4.55005 43.25 4.55005H60.25V8.30005H47Z" fill="#2EBB77"/>
</g>
<defs>
<clipPath id="clip0_8360_23387">
<rect width="64" height="64" fill="white" transform="matrix(1 0 0 -1 0 64.8)"/>
</clipPath>
</defs>
</svg>
