<svg width="26" height="26" viewBox="0 0 26 26" fill="none" xmlns="http://www.w3.org/2000/svg">
<g clip-path="url(#clip0_8360_23438)">
<path d="M17.0616 11.9246C17.0459 11.862 17.0263 11.8033 17.0029 11.7485C16.9794 11.6938 16.9442 11.6429 16.8972 11.5959C16.8503 11.549 16.8033 11.506 16.7564 11.4668C16.7094 11.4277 16.6547 11.4003 16.5921 11.3847L11.1928 9.36582L12.5543 2.46415C12.57 2.3859 12.5739 2.30765 12.5661 2.2294C12.5583 2.15115 12.5387 2.0729 12.5074 1.99465C12.4761 1.93205 12.4291 1.86945 12.3665 1.80685C12.3039 1.74425 12.2413 1.6973 12.1787 1.666C12.1005 1.61905 12.0222 1.58775 11.944 1.5721C11.8657 1.55645 11.7875 1.55645 11.7092 1.5721C11.631 1.58775 11.5527 1.61513 11.4745 1.65426C11.3962 1.69338 11.3336 1.74425 11.2867 1.80685L0.769869 13.0749C0.722919 13.1218 0.683794 13.1727 0.652494 13.2275C0.621194 13.2822 0.597719 13.3409 0.582069 13.4035C0.566419 13.4505 0.558594 13.5053 0.558594 13.5679C0.558594 13.6305 0.566419 13.6931 0.582069 13.7557C0.597719 13.8183 0.617281 13.8769 0.640756 13.9317C0.664232 13.9865 0.699444 14.0374 0.746394 14.0843C0.793344 14.1313 0.840294 14.1743 0.887245 14.2134C0.934195 14.2525 0.98897 14.2799 1.05157 14.2956L6.45083 16.3144L5.08928 23.2161C5.07363 23.2944 5.06972 23.3726 5.07754 23.4509C5.08537 23.5291 5.10493 23.6074 5.13623 23.6856C5.16753 23.7482 5.21448 23.8108 5.27708 23.8734C5.33968 23.936 5.40228 23.983 5.46488 24.0143C5.52748 24.0456 5.58617 24.069 5.64094 24.0847C5.69572 24.1003 5.75441 24.1082 5.81701 24.1082C5.86396 24.1082 5.91482 24.1042 5.96959 24.0964C6.02437 24.0886 6.07523 24.069 6.12218 24.0377C6.16913 24.0221 6.21217 23.9986 6.2513 23.9673C6.29042 23.936 6.32563 23.9047 6.35693 23.8734L16.8738 12.6054C16.9207 12.5584 16.9598 12.5076 16.9911 12.4528C17.0224 12.398 17.0459 12.3393 17.0616 12.2767C17.0772 12.2298 17.085 12.175 17.085 12.1124C17.085 12.0498 17.0772 11.9872 17.0616 11.9246Z" fill="#2EBB77"/>
</g>
<defs>
<clipPath id="clip0_8360_23438">
<rect width="25" height="25" fill="white" transform="matrix(1 0 0 -1 0.558594 25.3401)"/>
</clipPath>
</defs>
</svg>
