<svg viewBox="0 0 20 20" fill="none" xmlns="http://www.w3.org/2000/svg"><path d="M8 13.993l6-4.343-6-4.342v8.685zM10 0a10.26 10.26 0 00-5.556 1.626A9.733 9.733 0 00.761 5.957a9.337 9.337 0 00-.569 5.576 9.55 9.55 0 002.737 4.941 10.117 10.117 0 005.12 2.641c1.94.372 3.95.181 5.778-.55a9.932 9.932 0 004.488-3.553A9.412 9.412 0 0020 9.65c0-2.56-1.054-5.014-2.929-6.824C15.196 1.016 12.652 0 10 0zm0 17.37a8.208 8.208 0 01-4.445-1.3 7.786 7.786 0 01-2.946-3.465 7.47 7.47 0 01-.455-4.46 7.64 7.64 0 012.19-3.954 8.094 8.094 0 014.095-2.113 8.27 8.27 0 014.623.44 7.946 7.946 0 013.59 2.843A7.53 7.53 0 0118 9.651a7.586 7.586 0 01-2.343 5.458A8.149 8.149 0 0110 17.37z" fill="#485256"/></svg>