<svg width="56" height="58" viewBox="0 0 56 58" fill="none" xmlns="http://www.w3.org/2000/svg">
<g clip-path="url(#clip0_8360_23539)">
<path d="M29.2031 2.8399C28.0365 1.67324 26.6328 1.0899 24.9922 1.0899C23.3516 1.0899 21.9661 1.67324 20.8359 2.8399L15.1484 8.47272C13.7266 8.32689 12.3229 8.4636 10.9375 8.88287C9.55208 9.30214 8.3125 9.96751 7.21875 10.879L3.82812 13.7227C2.625 14.7071 1.6862 15.9102 1.01172 17.3321C0.33724 18.754 0 20.2488 0 21.8165V51.6212C0 53.1159 0.53776 54.4011 1.61328 55.4766C2.6888 56.5521 3.97396 57.0899 5.46875 57.0899H23.1328C24.6276 57.0899 25.9128 56.5521 26.9883 55.4766C28.0638 54.4011 28.6016 53.1159 28.6016 51.6212V22.0899C28.6016 20.7045 28.3372 19.3829 27.8086 18.1251C27.2799 16.8672 26.5599 15.7462 25.6484 14.7618L29.2031 11.2071C30.3698 10.0404 30.9531 8.63678 30.9531 6.99615C30.9531 5.35553 30.3698 3.97011 29.2031 2.8399ZM25.3203 22.0899V51.6212C25.3203 52.2409 25.1016 52.7605 24.6641 53.1797C24.2266 53.599 23.7161 53.8087 23.1328 53.8087H5.46875C4.88542 53.8087 4.375 53.599 3.9375 53.1797C3.5 52.7605 3.28125 52.2409 3.28125 51.6212V21.8165C3.28125 20.7227 3.50911 19.6928 3.96484 18.7266C4.42057 17.7605 5.06771 16.931 5.90625 16.2383L9.29688 13.3946C10.5729 12.3373 12.0768 11.7813 13.8086 11.7266C15.5404 11.6719 17.0625 12.155 18.375 13.1758L20.7812 14.9805L17.9375 17.8243C15.7135 16.4753 13.4258 16.4571 11.0742 17.7696C8.72266 19.0821 7.5651 21.0508 7.60156 23.6758C7.60156 25.5352 8.26693 27.1303 9.59766 28.461C10.9284 29.7917 12.5417 30.4571 14.4375 30.4571C17.026 30.4936 18.9857 29.336 20.3164 26.9844C21.6471 24.6329 21.6198 22.3633 20.2344 20.1758L23.2969 17.0587C23.9531 17.7514 24.4544 18.5261 24.8008 19.3829C25.1471 20.2396 25.3203 21.142 25.3203 22.0899ZM17.9375 23.6758C17.8281 26.0092 16.6523 27.1758 14.4102 27.1758C12.168 27.1758 10.9922 26.0092 10.8828 23.6758C10.8464 22.5092 11.3203 21.5613 12.3047 20.8321C13.2891 20.1029 14.3464 19.9206 15.4766 20.2852L13.2344 22.5274C12.9427 22.8191 12.7969 23.1928 12.7969 23.6485C12.7969 24.1042 12.9427 24.4962 13.2344 24.8243C13.5625 25.1524 13.9544 25.3165 14.4102 25.3165C14.8659 25.3165 15.2578 25.1524 15.5859 24.8243L17.7734 22.6368C17.8464 22.7826 17.8919 22.9467 17.9102 23.129C17.9284 23.3113 17.9375 23.4935 17.9375 23.6758ZM26.9062 8.85553L23.0781 12.6837L20.3438 10.6055C20.0885 10.3868 19.8242 10.1954 19.5508 10.0313C19.2773 9.86725 18.9948 9.7123 18.7031 9.56647L23.1328 5.13678C23.6432 4.62636 24.263 4.37115 24.9922 4.37115C25.7214 4.37115 26.3594 4.62636 26.9062 5.13678C27.4167 5.6472 27.6719 6.2761 27.6719 7.0235C27.6719 7.77089 27.4167 8.38157 26.9062 8.85553ZM19.9609 40.5743H8.80469C7.71094 40.6472 7.16406 41.2032 7.16406 42.2422C7.16406 43.2813 7.71094 43.8191 8.80469 43.8555H19.9609C21.0547 43.8191 21.6016 43.2813 21.6016 42.2422C21.6016 41.2032 21.0547 40.6472 19.9609 40.5743ZM19.9609 34.0665H8.80469C7.71094 34.1029 7.16406 34.6407 7.16406 35.6797C7.16406 36.7188 7.71094 37.2748 8.80469 37.3477H19.9609C21.0547 37.2748 21.6016 36.7188 21.6016 35.6797C21.6016 34.6407 21.0547 34.1029 19.9609 34.0665ZM19.9609 46.9727H8.80469C7.71094 47.0092 7.16406 47.5561 7.16406 48.6133C7.16406 49.6706 7.71094 50.2175 8.80469 50.254H19.9609C21.0547 50.2175 21.6016 49.6706 21.6016 48.6133C21.6016 47.5561 21.0547 47.0092 19.9609 46.9727Z" fill="#2EBB77"/>
</g>
<defs>
<clipPath id="clip0_8360_23539">
<rect width="56" height="57" fill="white" transform="matrix(1 0 0 -1 0 57.5899)"/>
</clipPath>
</defs>
</svg>
