<svg width="64" height="65" viewBox="0 0 64 65" fill="none" xmlns="http://www.w3.org/2000/svg">
<g clip-path="url(#clip0_8360_23380)">
<path d="M58.375 11.05C57.5833 9.09172 56.3958 7.42505 54.8125 6.05005C53.2292 4.67505 51.4167 3.73755 49.375 3.23755L39.9375 0.862549C39.6875 0.779213 39.4167 0.768799 39.125 0.831299C38.8333 0.893799 38.5833 1.00838 38.375 1.17505C38.125 1.38338 37.9375 1.61255 37.8125 1.86255C37.6875 2.11255 37.625 2.38338 37.625 2.67505C37.625 4.21672 37.0729 5.53963 35.9688 6.6438C34.8646 7.74797 33.5417 8.30005 32 8.30005C30.4583 8.30005 29.1354 7.74797 28.0312 6.6438C26.9271 5.53963 26.375 4.21672 26.375 2.67505C26.375 2.38338 26.3125 2.11255 26.1875 1.86255C26.0625 1.61255 25.875 1.38338 25.625 1.17505C25.4167 1.00838 25.1667 0.893799 24.875 0.831299C24.5833 0.768799 24.3125 0.779213 24.0625 0.862549L14.625 3.23755C12.5417 3.73755 10.6979 4.68547 9.09375 6.0813C7.48958 7.47713 6.29167 9.13338 5.5 11.05L0.125 24.6125C0.0416667 24.8625 0 25.1125 0 25.3625C0 25.6125 0.0625 25.8625 0.1875 26.1125C0.270833 26.3209 0.416667 26.5188 0.625 26.7063C0.833333 26.8938 1.0625 27.0084 1.3125 27.05L11.375 30.425V62.925C11.375 63.425 11.5625 63.8625 11.9375 64.2375C12.3125 64.6125 12.75 64.8 13.25 64.8H50.75C51.25 64.8 51.6875 64.6125 52.0625 64.2375C52.4375 63.8625 52.625 63.425 52.625 62.925V30.425L62.6875 27.05C62.9375 27.0084 63.1667 26.8938 63.375 26.7063C63.5833 26.5188 63.7292 26.3209 63.8125 26.1125C63.9375 25.8625 64 25.6021 64 25.3313C64 25.0605 63.9583 24.8209 63.875 24.6125L58.375 11.05ZM52.625 26.4875V17.8C52.625 17.3 52.4375 16.8625 52.0625 16.4875C51.6875 16.1125 51.25 15.925 50.75 15.925C50.25 15.925 49.8125 16.1125 49.4375 16.4875C49.0625 16.8625 48.875 17.3 48.875 17.8V61.05H15.125C15.125 60.7584 15.125 58.3834 15.125 53.925C15.125 49.5084 15.125 44.6646 15.125 39.3938C15.125 34.123 15.125 29.2792 15.125 24.8625C15.125 20.4042 15.125 18.05 15.125 17.8C15.125 17.3 14.9375 16.8625 14.5625 16.4875C14.1875 16.1125 13.75 15.925 13.25 15.925C12.75 15.925 12.3125 16.1125 11.9375 16.4875C11.5625 16.8625 11.375 17.3 11.375 17.8V26.4875L4.375 24.1125L9 12.4875C9.54167 11.1125 10.3958 9.92505 11.5625 8.92505C12.7292 7.92505 14.0625 7.23755 15.5625 6.86255L22.9375 4.98755C23.4375 7.02922 24.5312 8.71672 26.2188 10.05C27.9062 11.3834 29.8333 12.05 32 12.05C34.1667 12.05 36.0938 11.3834 37.7812 10.05C39.4688 8.71672 40.5625 7.02922 41.0625 4.98755L48.4375 6.86255C49.8958 7.23755 51.1979 7.91463 52.3438 8.8938C53.4896 9.87297 54.3333 11.0709 54.875 12.4875L59.625 24.175L52.625 26.4875ZM44.4375 23.8625C44.1458 23.6125 43.8125 23.4667 43.4375 23.425C43.0625 23.3834 42.7292 23.4459 42.4375 23.6125L36.5625 26.55L33.6875 20.7375C33.5208 20.4042 33.2917 20.1438 33 19.9563C32.7083 19.7688 32.375 19.675 32 19.675C31.625 19.675 31.2917 19.7688 31 19.9563C30.7083 20.1438 30.4792 20.4042 30.3125 20.7375L27.4375 26.55L21.5625 23.6125C21.2708 23.4459 20.9375 23.3834 20.5625 23.425C20.1875 23.4667 19.8542 23.6125 19.5625 23.8625C19.2708 24.0709 19.0729 24.3521 18.9688 24.7063C18.8646 25.0605 18.8542 25.4042 18.9375 25.7375L22.6875 40.7375C22.7708 41.1542 22.9896 41.498 23.3438 41.7688C23.6979 42.0396 24.0833 42.175 24.5 42.175H39.5C39.9167 42.175 40.3021 42.0396 40.6562 41.7688C41.0104 41.498 41.2292 41.1542 41.3125 40.7375L45.0625 25.7375C45.1458 25.4042 45.1354 25.0605 45.0312 24.7063C44.9271 24.3521 44.7292 24.0709 44.4375 23.8625ZM38.0625 38.425H25.9375L23.5625 28.8L27.4375 30.7375C27.8958 30.9459 28.3646 30.9771 28.8438 30.8313C29.3229 30.6855 29.6875 30.3625 29.9375 29.8625L32 25.7375L34.0625 29.8625C34.3125 30.3625 34.6771 30.6855 35.1562 30.8313C35.6354 30.9771 36.1042 30.9459 36.5625 30.7375L40.4375 28.8L38.0625 38.425Z" fill="#2EBB77"/>
</g>
<defs>
<clipPath id="clip0_8360_23380">
<rect width="64" height="64" fill="white" transform="matrix(1 0 0 -1 0 64.8)"/>
</clipPath>
</defs>
</svg>
