<svg width="56" height="58" viewBox="0 0 56 58" fill="none" xmlns="http://www.w3.org/2000/svg">
<g clip-path="url(#clip0_8360_23551)">
<path d="M54.3594 1.0899C53.9219 1.0899 53.5391 1.25397 53.2109 1.58209C52.8828 1.91022 52.7188 2.29303 52.7188 2.73053V8.14459H34.8906V8.03522C34.8542 6.94147 34.3073 6.39459 33.25 6.39459C32.1927 6.39459 31.6458 6.92324 31.6094 7.98053V8.14459H24.3906V8.03522C24.3177 6.94147 23.7617 6.39459 22.7227 6.39459C21.6836 6.39459 21.1458 6.92324 21.1094 7.98053V8.14459H3.28125V2.73053C3.24479 1.63678 2.69792 1.0899 1.64062 1.0899C0.583333 1.0899 0.0364583 1.63678 0 2.73053V55.4493C0.0364583 56.543 0.583333 57.0899 1.64062 57.0899C2.69792 57.0899 3.24479 56.543 3.28125 55.4493V11.4258H21.1094V15.1446H13.9453C13.7266 15.1446 13.5169 15.1902 13.3164 15.2813C13.1159 15.3725 12.9427 15.4909 12.7969 15.6368L7.49219 20.8868C7.20052 21.2149 7.05469 21.6068 7.05469 22.0626C7.05469 22.5183 7.20052 22.9102 7.49219 23.2383L12.3047 27.9962V43.1446C12.3047 43.6186 12.4688 44.0105 12.7969 44.3204C13.125 44.6303 13.5078 44.7852 13.9453 44.7852H42.0547C42.4922 44.7852 42.875 44.6303 43.2031 44.3204C43.5312 44.0105 43.6953 43.6186 43.6953 43.1446V27.9962L48.5078 23.2383C48.7995 22.9102 48.9453 22.5183 48.9453 22.0626C48.9453 21.6068 48.7995 21.2149 48.5078 20.8868L43.2031 15.6368C43.0573 15.4909 42.8841 15.3725 42.6836 15.2813C42.4831 15.1902 42.2734 15.1446 42.0547 15.1446H34.8906V11.4258H52.7188V55.4493C52.7552 56.543 53.3021 57.0899 54.3594 57.0899C55.4167 57.0899 55.9635 56.543 56 55.4493V2.73053C56 2.29303 55.8359 1.91022 55.5078 1.58209C55.1797 1.25397 54.7969 1.0899 54.3594 1.0899ZM24.3906 11.4258H31.6094V15.1446H24.3906V11.4258ZM20.8359 18.4258H24.6094V20.2852C24.5729 21.5248 23.9531 22.1446 22.75 22.1446C21.5469 22.1446 20.9089 21.5248 20.8359 20.2852V18.4258ZM29.8594 27.3399V41.504H15.5859V27.3399C15.5859 27.1212 15.5404 26.9115 15.4492 26.711C15.3581 26.5105 15.2396 26.3373 15.0938 26.1915L10.9922 22.0899L14.6016 18.4258H17.5547V20.2852C17.6276 21.9988 18.1927 23.293 19.25 24.168C20.3073 25.0066 21.4648 25.4258 22.7227 25.4258C23.9805 25.4258 25.138 25.0066 26.1953 24.168C27.2526 23.293 27.8177 21.9988 27.8906 20.2852V18.4258H30.8438L34.4531 22.0899L30.3516 26.1915C30.2057 26.3373 30.0872 26.5105 29.9961 26.711C29.9049 26.9115 29.8594 27.1212 29.8594 27.3399ZM41.3984 18.4258L45.0078 22.0899L40.9062 26.1915C40.7604 26.3373 40.6419 26.5105 40.5508 26.711C40.4596 26.9115 40.4141 27.1212 40.4141 27.3399V41.504H33.1406V27.9962L37.9531 23.2383C38.2812 22.9102 38.4453 22.5183 38.4453 22.0626C38.4453 21.6068 38.2812 21.2149 37.9531 20.8868L35.4922 18.4258H41.3984Z" fill="#2EBB77"/>
</g>
<defs>
<clipPath id="clip0_8360_23551">
<rect width="56" height="57" fill="white" transform="matrix(1 0 0 -1 0 57.5899)"/>
</clipPath>
</defs>
</svg>
