<svg width="23" height="17" viewBox="0 0 23 17" fill="none" xmlns="http://www.w3.org/2000/svg">
<path d="M22.7188 1.2312C22.9062 1.43953 23 1.67912 23 1.94995C23 2.22078 22.9062 2.46037 22.7188 2.6687L8.71875 16.6687C8.51042 16.8562 8.27083 16.95 8 16.95C7.72917 16.95 7.48958 16.8562 7.28125 16.6687L0.28125 9.6687C0.09375 9.46037 0 9.22078 0 8.94995C0 8.67912 0.09375 8.43953 0.28125 8.2312C0.489583 8.0437 0.729167 7.94995 1 7.94995C1.27083 7.94995 1.51042 8.0437 1.71875 8.2312L8 14.5437L21.2812 1.2312C21.4896 1.0437 21.7292 0.949951 22 0.949951C22.2708 0.949951 22.5104 1.0437 22.7188 1.2312Z" fill="#11B196"/>
</svg>
