<svg width="16" height="17" viewBox="0 0 16 17" fill="none" xmlns="http://www.w3.org/2000/svg">
<path d="M0.140625 6.16064C0.244792 6.06689 0.364583 6.02002 0.5 6.02002C0.635417 6.02002 0.755208 6.06689 0.859375 6.16064L5.5 10.8169L10.1406 6.16064C10.2448 6.06689 10.3646 6.02002 10.5 6.02002C10.6354 6.02002 10.7552 6.06689 10.8594 6.16064C10.9531 6.26481 11 6.3846 11 6.52002C11 6.65544 10.9531 6.77523 10.8594 6.87939L5.85938 11.8794C5.75521 11.9731 5.63542 12.02 5.5 12.02C5.36458 12.02 5.24479 11.9731 5.14062 11.8794L0.140625 6.87939C0.046875 6.77523 0 6.65544 0 6.52002C0 6.3846 0.046875 6.26481 0.140625 6.16064Z" fill="black"/>
</svg>
